# Blender 4.2.3 LTS
# www.blender.org
mtllib Factory.mtl
o Cube
v -0.517748 -0.346966 1.068471
v -0.517748 0.499136 1.068471
v -0.504973 0.956937 -0.063207
v -0.517748 -0.346966 -0.541091
v 0.504973 0.956937 -0.063207
v -0.504973 0.956937 -0.559246
v -0.517748 0.499136 -0.541091
v 0.504973 0.956937 -0.559246
v 0.517748 -0.346966 1.068471
v 0.517748 0.499136 1.068471
v 0.517748 -0.346966 -0.541091
v 0.517748 0.499136 -0.541091
v -0.517748 -0.103043 0.725991
v -0.517748 0.218446 0.725991
v -0.517748 0.218446 0.404502
v -0.517748 -0.103043 0.404502
v -0.517748 -0.103043 0.072949
v -0.517748 0.218446 0.072949
v -0.517748 -0.103043 -0.248540
v -0.517748 0.218446 -0.248540
v -0.504973 0.497083 -0.541091
v -0.504973 0.499136 -0.541091
v 0.504973 0.499136 -0.541091
v 0.504973 0.497083 -0.541091
v -0.504973 0.499136 -0.045447
v 0.504973 0.499136 -0.045447
v -0.504973 -0.103043 0.404502
v -0.504973 0.098226 0.404502
v -0.504973 -0.103043 0.630391
v -0.504973 0.218446 -0.248540
v -0.504973 -0.103043 -0.248540
v -0.504973 -0.103043 0.072949
v -0.504973 0.218446 0.072949
v 0.504973 0.499136 -0.045133
v 0.504973 0.499136 0.450592
v -0.504973 0.499136 0.450592
v -0.504973 0.499136 -0.045133
v -0.504973 0.098226 0.404502
v -0.504973 0.218446 0.404502
v -0.504973 -0.103043 0.725991
v -0.504973 0.218446 0.725991
v -0.504973 -0.103043 0.630391
v -0.216733 0.472350 0.518094
v -0.216733 1.316185 0.518094
v -0.175713 0.472350 0.522134
v -0.175713 1.316185 0.522134
v -0.136268 0.472350 0.534099
v -0.136268 1.316185 0.534099
v -0.099916 0.472350 0.553530
v -0.099916 1.316185 0.553530
v -0.068053 0.472350 0.579679
v -0.068053 1.316185 0.579679
v -0.041904 0.472350 0.611542
v -0.041904 1.316185 0.611542
v -0.022473 0.472350 0.647894
v -0.022473 1.316185 0.647894
v -0.010508 0.472350 0.687339
v -0.010508 1.316185 0.687339
v -0.006468 0.472350 0.728359
v -0.006468 1.316185 0.728359
v -0.010508 0.472350 0.769380
v -0.010508 1.316185 0.769380
v -0.022473 0.472350 0.808824
v -0.022473 1.316185 0.808824
v -0.041904 0.472350 0.845177
v -0.041904 1.316185 0.845177
v -0.068053 0.472350 0.877039
v -0.068053 1.316185 0.877039
v -0.099916 0.472350 0.903189
v -0.099916 1.316185 0.903189
v -0.136268 0.472350 0.922619
v -0.136268 1.316185 0.922619
v -0.175713 0.472350 0.934585
v -0.175713 1.316185 0.934585
v -0.216733 0.472350 0.938625
v -0.216733 1.316185 0.938625
v -0.257754 0.472350 0.934585
v -0.257754 1.316185 0.934585
v -0.297198 0.472350 0.922619
v -0.297198 1.316185 0.922619
v -0.333551 0.472350 0.903189
v -0.333551 1.316185 0.903189
v -0.365414 0.472350 0.877039
v -0.365414 1.316185 0.877039
v -0.391563 0.472350 0.845177
v -0.391563 1.316185 0.845177
v -0.410993 0.472350 0.808824
v -0.410993 1.316185 0.808824
v -0.422959 0.472350 0.769380
v -0.422959 1.316185 0.769380
v -0.426999 0.472350 0.728359
v -0.426999 1.316185 0.728359
v -0.422959 0.472350 0.687339
v -0.422959 1.316185 0.687339
v -0.410993 0.472350 0.647894
v -0.410993 1.316185 0.647894
v -0.391563 0.472350 0.611542
v -0.391563 1.316185 0.611542
v -0.365414 0.472350 0.579679
v -0.365414 1.316185 0.579679
v -0.333551 0.472350 0.553530
v -0.333551 1.316185 0.553530
v -0.297198 0.472350 0.534099
v -0.297198 1.316185 0.534099
v -0.257754 0.472350 0.522134
v -0.257754 1.316185 0.522134
v 0.218187 0.448074 0.378862
v 0.218187 1.113111 0.378862
v 0.250516 0.448074 0.382046
v 0.250516 1.113111 0.382046
v 0.281603 0.448074 0.391476
v 0.281603 1.113111 0.391476
v 0.310252 0.448074 0.406789
v 0.310252 1.113111 0.406789
v 0.335364 0.448074 0.427398
v 0.335364 1.113111 0.427398
v 0.355972 0.448074 0.452510
v 0.355972 1.113111 0.452510
v 0.371286 0.448074 0.481159
v 0.371286 1.113111 0.481159
v 0.380716 0.448074 0.512246
v 0.380716 1.113111 0.512246
v 0.383900 0.448074 0.544575
v 0.383900 1.113111 0.544575
v 0.380716 0.448074 0.576904
v 0.380716 1.113111 0.576904
v 0.371286 0.448074 0.607990
v 0.371286 1.113111 0.607990
v 0.355972 0.448074 0.636640
v 0.355972 1.113111 0.636640
v 0.335364 0.448074 0.661751
v 0.335364 1.113111 0.661751
v 0.310252 0.448074 0.682360
v 0.310252 1.113111 0.682360
v 0.281603 0.448074 0.697673
v 0.281603 1.113111 0.697673
v 0.250516 0.448074 0.707103
v 0.250516 1.113111 0.707103
v 0.218187 0.448074 0.710288
v 0.218187 1.113111 0.710288
v 0.185858 0.448074 0.707103
v 0.185858 1.113111 0.707103
v 0.154771 0.448074 0.697673
v 0.154771 1.113111 0.697673
v 0.126122 0.448074 0.682360
v 0.126122 1.113111 0.682360
v 0.101010 0.448074 0.661751
v 0.101010 1.113111 0.661751
v 0.080402 0.448074 0.636640
v 0.080402 1.113111 0.636640
v 0.065088 0.448074 0.607990
v 0.065088 1.113111 0.607990
v 0.055658 0.448074 0.576904
v 0.055658 1.113111 0.576904
v 0.052474 0.448074 0.544575
v 0.052474 1.113111 0.544575
v 0.055658 0.448074 0.512246
v 0.055658 1.113111 0.512246
v 0.065088 0.448074 0.481159
v 0.065088 1.113111 0.481159
v 0.080402 0.448074 0.452510
v 0.080402 1.113111 0.452510
v 0.101010 0.448074 0.427398
v 0.101010 1.113111 0.427398
v 0.126122 0.448074 0.406789
v 0.126122 1.113111 0.406789
v 0.154771 0.448074 0.391476
v 0.154771 1.113111 0.391476
v 0.185858 0.448074 0.382046
v 0.185858 1.113111 0.382046
v -0.044317 -0.346952 0.400000
v -0.044317 0.186341 0.400000
v -0.044317 -0.346952 -0.400000
v -0.044317 0.186341 -0.400000
v 0.755683 -0.346952 0.400000
v 0.755683 0.186341 0.400000
v 0.755683 -0.346952 -0.400000
v 0.755683 0.186341 -0.400000
vn -1.0000 -0.0000 -0.0000
vn -0.0000 -0.0000 -1.0000
vn 1.0000 -0.0000 -0.0000
vn -0.0000 -0.0000 1.0000
vn -0.0000 -1.0000 -0.0000
vn -0.0000 1.0000 -0.0000
vn -0.0000 -0.0395 -0.9992
vn -0.0000 0.9056 0.4240
vn -0.0000 0.7466 0.6652
vn 0.0980 -0.0000 -0.9952
vn 0.2903 -0.0000 -0.9569
vn 0.4714 -0.0000 -0.8819
vn 0.6344 -0.0000 -0.7730
vn 0.7730 -0.0000 -0.6344
vn 0.8819 -0.0000 -0.4714
vn 0.9569 -0.0000 -0.2903
vn 0.9952 -0.0000 -0.0980
vn 0.9952 -0.0000 0.0980
vn 0.9569 -0.0000 0.2903
vn 0.8819 -0.0000 0.4714
vn 0.7730 -0.0000 0.6344
vn 0.6344 -0.0000 0.7730
vn 0.4714 -0.0000 0.8819
vn 0.2903 -0.0000 0.9569
vn 0.0980 -0.0000 0.9952
vn -0.0980 -0.0000 0.9952
vn -0.2903 -0.0000 0.9569
vn -0.4714 -0.0000 0.8819
vn -0.6344 -0.0000 0.7730
vn -0.7730 -0.0000 0.6344
vn -0.8819 -0.0000 0.4714
vn -0.9569 -0.0000 0.2903
vn -0.9952 -0.0000 0.0980
vn -0.9952 -0.0000 -0.0980
vn -0.9569 -0.0000 -0.2903
vn -0.8819 -0.0000 -0.4714
vn -0.7730 -0.0000 -0.6344
vn -0.6344 -0.0000 -0.7730
vn -0.4714 -0.0000 -0.8819
vn -0.2903 -0.0000 -0.9569
vn -0.0980 -0.0000 -0.9952
vt 0.062584 0.434631
vt 0.030047 0.478715
vt 0.030047 0.325799
vt 0.062584 0.376528
vt 0.182963 0.325799
vt 0.182963 0.478715
vt 0.093127 0.434631
vt 0.124627 0.434631
vt 0.155170 0.434631
vt 0.155170 0.376528
vt 0.124627 0.376528
vt 0.093127 0.376528
vt 0.181077 0.112789
vt 0.182963 0.112789
vt 0.182963 0.265705
vt 0.030047 0.265705
vt 0.030047 0.112789
vt 0.031934 0.112789
vt 0.031934 0.113160
vt 0.181077 0.113160
vt 0.456068 0.182963
vt 0.456068 0.030047
vt 0.608984 0.030047
vt 0.608984 0.182963
vt 0.608612 0.395974
vt 0.456068 0.395974
vt 0.456068 0.243058
vt 0.608612 0.243058
vt 0.395974 0.030047
vt 0.395974 0.182963
vt 0.243058 0.182963
vt 0.243058 0.030047
vt 0.395974 0.395974
vt 0.243058 0.395974
vt 0.243058 0.243058
vt 0.395974 0.243058
vt 0.395974 0.244944
vt 0.348885 0.244944
vt 0.348855 0.244944
vt 0.301759 0.244944
vt 0.301759 0.394087
vt 0.348855 0.394087
vt 0.348885 0.394087
vt 0.395974 0.394087
vt 0.925606 0.243058
vt 0.927493 0.243058
vt 0.927493 0.301019
vt 0.925606 0.301019
vt 0.925606 0.264732
vt 0.030047 0.955446
vt 0.030047 0.897343
vt 0.031934 0.897343
vt 0.031934 0.955446
vt 0.898235 0.527253
vt 0.898235 0.527253
vt 0.898235 0.548714
vt 0.896349 0.548714
vt 0.896349 0.518171
vt 0.898235 0.518171
vt 0.960216 0.518171
vt 0.960216 0.548714
vt 0.958330 0.548714
vt 0.958330 0.518171
vt 0.969953 0.634302
vt 0.969953 0.692263
vt 0.968066 0.692263
vt 0.968066 0.634302
vt 0.965054 0.088150
vt 0.965054 0.030047
vt 0.966941 0.030047
vt 0.966941 0.088150
vt 0.892234 0.963524
vt 0.890347 0.963524
vt 0.890347 0.932981
vt 0.892234 0.932981
vt 0.952328 0.932981
vt 0.954215 0.932981
vt 0.954215 0.963524
vt 0.952328 0.963524
vt 0.896349 0.458076
vt 0.917809 0.421701
vt 0.917809 0.458076
vt 0.401876 0.904520
vt 0.354787 0.904520
vt 0.403601 0.821782
vt 0.401876 0.904891
vt 0.890347 0.814784
vt 0.920890 0.814784
vt 0.920890 0.872886
vt 0.890347 0.872886
vt 0.171581 0.717043
vt 0.171581 0.813108
vt 0.131024 0.789181
vt 0.130836 0.789500
vt 0.031934 0.030047
vt 0.181077 0.030047
vt 0.925606 0.302515
vt 0.328997 0.605211
vt 0.243058 0.605211
vt 0.243058 0.456068
vt 0.328997 0.456068
vt 0.687043 0.905253
vt 0.677960 0.905253
vt 0.677960 0.847150
vt 0.708503 0.847150
vt 0.708503 0.868878
vt 0.824949 0.339122
vt 0.824949 0.243058
vt 0.865512 0.315191
vt 0.789690 0.886917
vt 0.830253 0.814784
vt 0.830253 0.910848
vt 0.535124 0.605211
vt 0.535124 0.456068
vt 0.617866 0.456068
vt 0.617866 0.605211
vt 0.475030 0.605211
vt 0.389091 0.605211
vt 0.389091 0.456068
vt 0.475030 0.456068
vt 0.268875 0.817811
vt 0.268875 0.665305
vt 0.274933 0.665306
vt 0.274933 0.817812
vt 0.280758 0.665308
vt 0.280758 0.817814
vt 0.286126 0.665312
vt 0.286126 0.817818
vt 0.290832 0.665317
vt 0.290832 0.817823
vt 0.294693 0.665322
vt 0.294693 0.817829
vt 0.805176 0.182554
vt 0.805176 0.030047
vt 0.808630 0.030047
vt 0.808630 0.182554
vt 0.812377 0.030047
vt 0.812377 0.182554
vt 0.816275 0.030047
vt 0.816275 0.182554
vt 0.820172 0.030047
vt 0.820172 0.182554
vt 0.823919 0.030047
vt 0.823919 0.182554
vt 0.827373 0.030047
vt 0.827373 0.182554
vt 0.677960 0.786437
vt 0.677960 0.634302
vt 0.681822 0.634513
vt 0.681822 0.786648
vt 0.686527 0.634686
vt 0.686527 0.786821
vt 0.691895 0.634814
vt 0.691895 0.786950
vt 0.697720 0.634894
vt 0.697720 0.787029
vt 0.703778 0.634920
vt 0.703778 0.787056
vt 0.709836 0.634894
vt 0.709836 0.787029
vt 0.715661 0.634814
vt 0.715661 0.786950
vt 0.721029 0.634686
vt 0.721029 0.786821
vt 0.725734 0.634513
vt 0.725734 0.786648
vt 0.729596 0.634302
vt 0.729596 0.786437
vt 0.814058 0.574207
vt 0.814058 0.421701
vt 0.817512 0.421701
vt 0.817512 0.574207
vt 0.821259 0.421701
vt 0.821259 0.574207
vt 0.825156 0.421701
vt 0.825156 0.574207
vt 0.829054 0.421701
vt 0.829054 0.574207
vt 0.832801 0.421701
vt 0.832801 0.574207
vt 0.836255 0.421701
vt 0.836255 0.574207
vt 0.243058 0.817829
vt 0.243058 0.665322
vt 0.246919 0.665317
vt 0.246919 0.817823
vt 0.251624 0.665312
vt 0.251624 0.817818
vt 0.256993 0.665308
vt 0.256993 0.817814
vt 0.464461 0.860055
vt 0.463695 0.854034
vt 0.463695 0.847964
vt 0.464461 0.842079
vt 0.465964 0.836604
vt 0.468146 0.831751
vt 0.470923 0.827706
vt 0.474188 0.824624
vt 0.477816 0.822624
vt 0.481668 0.821782
vt 0.485595 0.822131
vt 0.489446 0.823657
vt 0.493075 0.826302
vt 0.496340 0.829965
vt 0.499117 0.834504
vt 0.501298 0.839744
vt 0.502801 0.845486
vt 0.503567 0.851507
vt 0.503567 0.857577
vt 0.502801 0.863462
vt 0.501298 0.868936
vt 0.499117 0.873789
vt 0.496340 0.877835
vt 0.493075 0.880917
vt 0.489446 0.882917
vt 0.485595 0.883759
vt 0.481668 0.883410
vt 0.477816 0.881884
vt 0.474188 0.879238
vt 0.470923 0.875576
vt 0.468146 0.871037
vt 0.465964 0.865796
vt 0.262818 0.665306
vt 0.262818 0.817812
vt 0.603534 0.854034
vt 0.602768 0.860055
vt 0.601265 0.865796
vt 0.599083 0.871037
vt 0.596307 0.875576
vt 0.593041 0.879238
vt 0.589413 0.881884
vt 0.585561 0.883410
vt 0.581634 0.883759
vt 0.577783 0.882917
vt 0.574155 0.880917
vt 0.570889 0.877835
vt 0.568112 0.873789
vt 0.565931 0.868936
vt 0.564428 0.863462
vt 0.563662 0.857577
vt 0.563662 0.851507
vt 0.564428 0.845486
vt 0.565931 0.839744
vt 0.568112 0.834504
vt 0.570889 0.829965
vt 0.574155 0.826302
vt 0.577783 0.823657
vt 0.581634 0.822131
vt 0.585561 0.821782
vt 0.589413 0.822624
vt 0.593041 0.824624
vt 0.596307 0.827706
vt 0.599083 0.831751
vt 0.601265 0.836604
vt 0.602768 0.842079
vt 0.603534 0.847964
vt 0.050394 0.837235
vt 0.050394 0.717043
vt 0.055169 0.717044
vt 0.055169 0.837236
vt 0.059759 0.717046
vt 0.059759 0.837238
vt 0.063990 0.717048
vt 0.063990 0.837241
vt 0.067698 0.717052
vt 0.067698 0.837244
vt 0.070742 0.717057
vt 0.070742 0.837249
vt 0.890479 0.754494
vt 0.890479 0.634302
vt 0.893201 0.634302
vt 0.893201 0.754494
vt 0.896154 0.634302
vt 0.896154 0.754494
vt 0.899225 0.634302
vt 0.899225 0.754494
vt 0.902297 0.634302
vt 0.902297 0.754494
vt 0.905250 0.634302
vt 0.905250 0.754494
vt 0.907972 0.634302
vt 0.907972 0.754494
vt 0.789690 0.754202
vt 0.789690 0.634302
vt 0.792733 0.634468
vt 0.792733 0.754368
vt 0.796442 0.634604
vt 0.796442 0.754504
vt 0.800672 0.634706
vt 0.800672 0.754606
vt 0.805263 0.634768
vt 0.805263 0.754668
vt 0.810037 0.634789
vt 0.810037 0.754689
vt 0.814811 0.634768
vt 0.814811 0.754668
vt 0.819402 0.634706
vt 0.819402 0.754606
vt 0.823633 0.634604
vt 0.823633 0.754504
vt 0.827341 0.634468
vt 0.827341 0.754368
vt 0.830385 0.634302
vt 0.830385 0.754202
vt 0.887467 0.150239
vt 0.887467 0.030047
vt 0.890189 0.030047
vt 0.890189 0.150239
vt 0.893142 0.030047
vt 0.893142 0.150239
vt 0.896214 0.030047
vt 0.896214 0.150239
vt 0.899285 0.030047
vt 0.899285 0.150239
vt 0.902238 0.030047
vt 0.902238 0.150239
vt 0.904960 0.030047
vt 0.904960 0.150239
vt 0.030047 0.837249
vt 0.030047 0.717057
vt 0.033090 0.717052
vt 0.033090 0.837244
vt 0.036799 0.717048
vt 0.036799 0.837241
vt 0.041030 0.717046
vt 0.041030 0.837238
vt 0.162260 0.893836
vt 0.162260 0.898620
vt 0.161656 0.903366
vt 0.160472 0.907890
vt 0.158752 0.912021
vt 0.156564 0.915598
vt 0.153990 0.918484
vt 0.151131 0.920569
vt 0.148095 0.921772
vt 0.145000 0.922047
vt 0.141965 0.921384
vt 0.139106 0.919807
vt 0.136532 0.917378
vt 0.134344 0.914190
vt 0.132624 0.910365
vt 0.131440 0.906051
vt 0.130836 0.901413
vt 0.130836 0.896629
vt 0.131440 0.891884
vt 0.132624 0.887359
vt 0.134344 0.883228
vt 0.136532 0.879651
vt 0.139106 0.876765
vt 0.141965 0.874680
vt 0.145000 0.873477
vt 0.148095 0.873202
vt 0.151131 0.873866
vt 0.153990 0.875442
vt 0.156564 0.877871
vt 0.158752 0.881059
vt 0.160472 0.884884
vt 0.161656 0.889198
vt 0.045620 0.717044
vt 0.045620 0.837236
vt 0.243057 0.903341
vt 0.243057 0.898557
vt 0.243661 0.893919
vt 0.244846 0.889605
vt 0.246565 0.885780
vt 0.248754 0.882592
vt 0.251327 0.880163
vt 0.254186 0.878586
vt 0.257222 0.877923
vt 0.260317 0.878198
vt 0.263353 0.879401
vt 0.266212 0.881486
vt 0.268785 0.884372
vt 0.270974 0.887949
vt 0.272693 0.892080
vt 0.273878 0.896604
vt 0.274482 0.901350
vt 0.274482 0.906134
vt 0.273878 0.910772
vt 0.272693 0.915086
vt 0.270974 0.918911
vt 0.268785 0.922099
vt 0.266212 0.924528
vt 0.263353 0.926105
vt 0.260317 0.926768
vt 0.257222 0.926493
vt 0.254186 0.925290
vt 0.251327 0.923205
vt 0.248754 0.920319
vt 0.246565 0.916742
vt 0.244846 0.912611
vt 0.243661 0.908087
vt 0.354787 0.761688
vt 0.354787 0.665305
vt 0.430791 0.665305
vt 0.430791 0.761688
vt 0.126429 0.656949
vt 0.030047 0.656949
vt 0.030047 0.538810
vt 0.126429 0.538810
vt 0.490885 0.761687
vt 0.490885 0.665305
vt 0.566889 0.665305
vt 0.566889 0.761687
vt 0.764855 0.361197
vt 0.668707 0.361197
vt 0.668707 0.243058
vt 0.764855 0.243058
vt 0.745082 0.030047
vt 0.745082 0.148187
vt 0.669078 0.148187
vt 0.669078 0.030047
vt 0.753964 0.456068
vt 0.753964 0.574207
vt 0.677960 0.574207
vt 0.677960 0.456068
s 0
usemtl Material.001
f 13/1/1 1/2/1 2/3/1 14/4/1
f 14/4/1 2/3/1 7/5/1 4/6/1 1/2/1 13/1/1 16/7/1 17/8/1 19/9/1 20/10/1 18/11/1 15/12/1
f 16/7/1 15/12/1 18/11/1 17/8/1
f 23/13/2 12/14/2 11/15/2 4/16/2 7/17/2 22/18/2 21/19/2 24/20/2
f 11/21/3 12/22/3 10/23/3 9/24/3
f 9/25/4 10/26/4 2/27/4 1/28/4
f 4/29/5 11/30/5 9/31/5 1/32/5
f 7/33/6 2/34/6 10/35/6 12/36/6 23/37/6 26/38/6 34/39/6 35/40/6 36/41/6 37/42/6 25/43/6 22/44/6
f 34/39/6 26/38/6 25/43/6 37/42/6
f 39/45/4 15/46/4 16/47/4 27/48/4 28/49/4 38/49/4
f 13/50/2 14/51/2 41/52/2 40/53/2
f 42/54/6 29/55/6 27/56/6 16/57/6 13/58/6 40/59/6
f 14/60/5 15/61/5 39/62/5 41/63/5
f 20/64/4 19/65/4 31/66/4 30/67/4
f 17/68/2 18/69/2 33/70/2 32/71/2
f 31/72/6 19/73/6 17/74/6 32/75/6
f 33/76/5 18/77/5 20/78/5 30/79/5
f 29/80/1 28/81/1 27/82/1
f 22/83/1 25/84/1 6/85/1 21/86/1
f 33/87/1 30/88/1 31/89/1 32/90/1
f 8/91/3 26/92/3 23/93/3 24/94/3
f 21/19/7 6/95/7 8/96/7 24/20/7
f 38/49/8 28/49/8 29/97/8 42/97/8
f 26/98/9 8/99/9 6/100/9 25/101/9
f 42/102/1 40/103/1 41/104/1 39/105/1 38/106/1
f 36/107/1 3/108/1 37/109/1
f 34/110/3 5/111/3 35/112/3
f 3/113/7 5/114/7 34/115/7 37/116/7
f 35/117/9 5/118/9 3/119/9 36/120/9
f 43/121/10 44/122/10 46/123/10 45/124/10
f 45/124/11 46/123/11 48/125/11 47/126/11
f 47/126/12 48/125/12 50/127/12 49/128/12
f 49/128/13 50/127/13 52/129/13 51/130/13
f 51/130/14 52/129/14 54/131/14 53/132/14
f 53/133/15 54/134/15 56/135/15 55/136/15
f 55/136/16 56/135/16 58/137/16 57/138/16
f 57/138/17 58/137/17 60/139/17 59/140/17
f 59/140/18 60/139/18 62/141/18 61/142/18
f 61/142/19 62/141/19 64/143/19 63/144/19
f 63/144/20 64/143/20 66/145/20 65/146/20
f 65/147/21 66/148/21 68/149/21 67/150/21
f 67/150/22 68/149/22 70/151/22 69/152/22
f 69/152/23 70/151/23 72/153/23 71/154/23
f 71/154/24 72/153/24 74/155/24 73/156/24
f 73/156/25 74/155/25 76/157/25 75/158/25
f 75/158/26 76/157/26 78/159/26 77/160/26
f 77/160/27 78/159/27 80/161/27 79/162/27
f 79/162/28 80/161/28 82/163/28 81/164/28
f 81/164/29 82/163/29 84/165/29 83/166/29
f 83/166/30 84/165/30 86/167/30 85/168/30
f 85/169/31 86/170/31 88/171/31 87/172/31
f 87/172/32 88/171/32 90/173/32 89/174/32
f 89/174/33 90/173/33 92/175/33 91/176/33
f 91/176/34 92/175/34 94/177/34 93/178/34
f 93/178/35 94/177/35 96/179/35 95/180/35
f 95/180/36 96/179/36 98/181/36 97/182/36
f 97/183/37 98/184/37 100/185/37 99/186/37
f 99/186/38 100/185/38 102/187/38 101/188/38
f 101/188/39 102/187/39 104/189/39 103/190/39
f 46/191/6 44/192/6 106/193/6 104/194/6 102/195/6 100/196/6 98/197/6 96/198/6 94/199/6 92/200/6 90/201/6 88/202/6 86/203/6 84/204/6 82/205/6 80/206/6 78/207/6 76/208/6 74/209/6 72/210/6 70/211/6 68/212/6 66/213/6 64/214/6 62/215/6 60/216/6 58/217/6 56/218/6 54/219/6 52/220/6 50/221/6 48/222/6
f 103/190/40 104/189/40 106/223/40 105/224/40
f 105/224/41 106/223/41 44/122/41 43/121/41
f 43/225/5 45/226/5 47/227/5 49/228/5 51/229/5 53/230/5 55/231/5 57/232/5 59/233/5 61/234/5 63/235/5 65/236/5 67/237/5 69/238/5 71/239/5 73/240/5 75/241/5 77/242/5 79/243/5 81/244/5 83/245/5 85/246/5 87/247/5 89/248/5 91/249/5 93/250/5 95/251/5 97/252/5 99/253/5 101/254/5 103/255/5 105/256/5
f 107/257/10 108/258/10 110/259/10 109/260/10
f 109/260/11 110/259/11 112/261/11 111/262/11
f 111/262/12 112/261/12 114/263/12 113/264/12
f 113/264/13 114/263/13 116/265/13 115/266/13
f 115/266/14 116/265/14 118/267/14 117/268/14
f 117/269/15 118/270/15 120/271/15 119/272/15
f 119/272/16 120/271/16 122/273/16 121/274/16
f 121/274/17 122/273/17 124/275/17 123/276/17
f 123/276/18 124/275/18 126/277/18 125/278/18
f 125/278/19 126/277/19 128/279/19 127/280/19
f 127/280/20 128/279/20 130/281/20 129/282/20
f 129/283/21 130/284/21 132/285/21 131/286/21
f 131/286/22 132/285/22 134/287/22 133/288/22
f 133/288/23 134/287/23 136/289/23 135/290/23
f 135/290/24 136/289/24 138/291/24 137/292/24
f 137/292/25 138/291/25 140/293/25 139/294/25
f 139/294/26 140/293/26 142/295/26 141/296/26
f 141/296/27 142/295/27 144/297/27 143/298/27
f 143/298/28 144/297/28 146/299/28 145/300/28
f 145/300/29 146/299/29 148/301/29 147/302/29
f 147/302/30 148/301/30 150/303/30 149/304/30
f 149/305/31 150/306/31 152/307/31 151/308/31
f 151/308/32 152/307/32 154/309/32 153/310/32
f 153/310/33 154/309/33 156/311/33 155/312/33
f 155/312/34 156/311/34 158/313/34 157/314/34
f 157/314/35 158/313/35 160/315/35 159/316/35
f 159/316/36 160/315/36 162/317/36 161/318/36
f 161/319/37 162/320/37 164/321/37 163/322/37
f 163/322/38 164/321/38 166/323/38 165/324/38
f 165/324/39 166/323/39 168/325/39 167/326/39
f 110/327/6 108/328/6 170/329/6 168/330/6 166/331/6 164/332/6 162/333/6 160/334/6 158/335/6 156/336/6 154/337/6 152/338/6 150/339/6 148/340/6 146/341/6 144/342/6 142/343/6 140/344/6 138/345/6 136/346/6 134/347/6 132/348/6 130/349/6 128/350/6 126/351/6 124/352/6 122/353/6 120/354/6 118/355/6 116/356/6 114/357/6 112/358/6
f 167/326/40 168/325/40 170/359/40 169/360/40
f 169/360/41 170/359/41 108/258/41 107/257/41
f 107/361/5 109/362/5 111/363/5 113/364/5 115/365/5 117/366/5 119/367/5 121/368/5 123/369/5 125/370/5 127/371/5 129/372/5 131/373/5 133/374/5 135/375/5 137/376/5 139/377/5 141/378/5 143/379/5 145/380/5 147/381/5 149/382/5 151/383/5 153/384/5 155/385/5 157/386/5 159/387/5 161/388/5 163/389/5 165/390/5 167/391/5 169/392/5
f 171/393/1 172/394/1 174/395/1 173/396/1
f 173/397/2 174/398/2 178/399/2 177/400/2
f 177/401/3 178/402/3 176/403/3 175/404/3
f 175/405/4 176/406/4 172/407/4 171/408/4
f 173/409/5 177/410/5 175/411/5 171/412/5
f 178/413/6 174/414/6 172/415/6 176/416/6
